# xmcd
#
# Track frame offsets: 
#        150
#        13222
#        22045
#        32376
#        41009
#        51476
#        64166
#        74985
#        87112
#        98274
#        108810
#        121124
#        132772
#        144846
#        155318
#        166500
#        178045
#        190148
#        201034
#        211052
#        222238
#        232160
#        241392
#        251462
#        260757
#
# Disc length: 3611 seconds
#
# Revision: 0
# Processed by: cddbd v1.5.2PL0 Copyright (c) Steve Scherf et al.
# Submitted via: ExactAudioCopy v1.3
#
DISCID=580e1919
DTITLE=Faron Young - Faron Young_Country Hits and Favorites_CD1
DYEAR=2015
DGENRE=Country
TTITLE0=Four In The Morning (Alt. Ver.)
TTITLE1=Alone With You
TTITLE2=Liva Fast, Love Hard, Die Young
TTITLE3=Goin' Steady
TTITLE4=If You Ain't Lovin'
TTITLE5=Your Cheatin' Heart
TTITLE6=You Are My Sunshine
TTITLE7=Sweet Dreams
TTITLE8=I Can't Tell My Heart
TTITLE9=Bouquet Of Roses
TTITLE10=Have I Waited Too Long
TTITLE11=If That's The Fashion
TTITLE12=I Fall To Pieces
TTITLE13=A Moment Isn't Very Long
TTITLE14=Believing In Yourself
TTITLE15=I Can't Find The Time
TTITLE16=Bimbo
TTITLE17=I Don't Hurt Anymore
TTITLE18=That's What It's Like To Be Lonesome
TTITLE19=Chattanooga Shoe Shine Boy
TTITLE20=Big Shoes
TTITLE21=A World So Full Of Love
TTITLE22=Forget The Past
TTITLE23=I Made A Fool Of Myself
TTITLE24=I Can't Help It
EXTD=
EXTT0=
EXTT1=
EXTT2=
EXTT3=
EXTT4=
EXTT5=
EXTT6=
EXTT7=
EXTT8=
EXTT9=
EXTT10=
EXTT11=
EXTT12=
EXTT13=
EXTT14=
EXTT15=
EXTT16=
EXTT17=
EXTT18=
EXTT19=
EXTT20=
EXTT21=
EXTT22=
EXTT23=
EXTT24=
PLAYORDER=
